<svg aria-hidden="true" style="position: absolute; width: 0; height: 0; overflow: hidden;" version="1.1" xmlns="http://www.w3.org/2000/svg" xmlns:xlink="http://www.w3.org/1999/xlink">
<defs>
<symbol id="icon-address" viewBox="0 0 24 32">
<path d="M11.833 15.418c-1.093 0-2.141-0.413-2.914-1.146s-1.207-1.729-1.207-2.768 0.434-2.034 1.207-2.767c0.773-0.734 1.821-1.147 2.913-1.147s2.141 0.413 2.913 1.147c0.773 0.733 1.207 1.729 1.207 2.767 0 0.514-0.106 1.023-0.313 1.498-0.221 0.496-0.522 0.918-0.892 1.268l-0.002 0.002c-0.375 0.355-0.819 0.642-1.309 0.838l-0.028 0.010c-0.466 0.188-1.008 0.298-1.574 0.298-0.001 0-0.002 0-0.003 0h0zM11.833 0.546c-3.060 0-5.994 1.155-8.158 3.21s-3.378 4.842-3.378 7.749c0 8.219 11.536 20.351 11.536 20.351s11.536-12.133 11.536-20.351c0-2.906-1.215-5.693-3.379-7.749s-5.098-3.21-8.157-3.21z"></path>
</symbol>
<symbol id="icon-call" viewBox="0 0 32 32">
<path d="M15.505 0.495c8.565 0 15.506 6.941 15.506 15.505s-6.942 15.506-15.505 15.506c-2.74 0.004-5.433-0.721-7.8-2.102l-7.7 2.102 2.097-7.704c-1.322-2.228-2.103-4.911-2.103-7.776 0-0.009 0-0.018 0-0.027v0.001c0-8.564 6.942-15.505 15.505-15.505zM10.221 8.712l-0.31 0.013c-0.213 0.015-0.409 0.071-0.586 0.159l0.009-0.004c-0.174 0.1-0.324 0.217-0.455 0.352l-0.001 0.001c-0.186 0.176-0.291 0.328-0.404 0.475-0.548 0.706-0.878 1.605-0.878 2.581 0 0.007 0 0.015 0 0.022v-0.001c0.003 0.76 0.202 1.5 0.512 2.19 0.634 1.4 1.678 2.88 3.054 4.252 0.332 0.33 0.658 0.662 1.008 0.97 1.647 1.456 3.646 2.554 5.851 3.149l0.103 0.024 0.881 0.135c0.287 0.016 0.574-0.006 0.862-0.020 0.477-0.026 0.918-0.155 1.308-0.366l-0.016 0.008c0.203-0.105 0.4-0.219 0.594-0.341 0 0 0.065-0.045 0.194-0.14 0.209-0.155 0.338-0.265 0.511-0.446 0.13-0.135 0.239-0.29 0.326-0.469 0.12-0.252 0.242-0.735 0.291-1.136 0.038-0.307 0.027-0.475 0.022-0.579-0.006-0.166-0.144-0.338-0.295-0.41l-0.902-0.405s-1.349-0.588-2.174-0.963c-0.080-0.036-0.173-0.059-0.271-0.064l-0.002-0c-0.023-0.003-0.050-0.004-0.077-0.004-0.197 0-0.376 0.076-0.509 0.201l0-0c-0.008-0.003-0.112 0.086-1.233 1.444-0.1 0.133-0.258 0.218-0.435 0.218-0.048 0-0.094-0.006-0.139-0.018l0.004 0.001c-0.117-0.031-0.215-0.066-0.31-0.107l0.014 0.005c-0.193-0.080-0.26-0.111-0.391-0.167-0.937-0.414-1.743-0.936-2.452-1.564l0.010 0.008c-0.196-0.17-0.377-0.356-0.563-0.536-0.599-0.574-1.122-1.219-1.558-1.924l-0.024-0.042-0.091-0.147c-0.060-0.091-0.114-0.196-0.155-0.307l-0.003-0.011c-0.060-0.228 0.094-0.411 0.094-0.411s0.377-0.413 0.552-0.636c0.17-0.217 0.315-0.428 0.408-0.578 0.183-0.295 0.24-0.597 0.144-0.831-0.749-1.886-1.202-2.929-1.668-3.964l0.322 0.799c-0.091-0.208-0.362-0.357-0.609-0.386-0.060-0.008-0.146-0.017-0.233-0.024l-0.018-0.001c-0.080-0.005-0.174-0.008-0.268-0.008-0.126 0-0.25 0.005-0.373 0.015l0.016-0.001 0.313-0.010z"></path>
</symbol>
<symbol id="icon-left" viewBox="0 0 31 32">
<path d="M11.753 22.647c-0.231 0.231-0.55 0.374-0.903 0.374s-0.672-0.143-0.903-0.374l-5.746-5.744c-0.231-0.231-0.374-0.55-0.374-0.903s0.143-0.672 0.374-0.903l5.745-5.744c0.229-0.22 0.541-0.355 0.884-0.355 0.705 0 1.277 0.572 1.277 1.277 0 0.343-0.136 0.655-0.356 0.885l-3.564 3.564h17.342c0.705 0 1.277 0.572 1.277 1.277s-0.572 1.277-1.277 1.277v0h-17.341l3.565 3.565c0.231 0.231 0.374 0.55 0.374 0.902s-0.143 0.671-0.374 0.902v0z"></path>
</symbol>
<symbol id="icon-logo" viewBox="0 0 77 32">
<path fill="#1fae8a" style="fill: var(--color1, #1fae8a)" d="M60.905 31.663c-8.611 0-15.613-7.098-15.613-15.822s6.998-15.81 15.613-15.81c8.615 0 15.617 7.097 15.617 15.818s-7.006 15.815-15.617 15.815zM60.905 1.402c-7.851 0-14.239 6.475-14.239 14.438s6.396 14.45 14.239 14.45c7.843 0 14.243-6.479 14.243-14.442s-6.388-14.438-14.243-14.438v-0.007zM2.015 11.584v8.23h-1.699v-8.23h1.698zM11.564 11.584v8.23h-1.93l-2.856-4.836-0.702-1.349 0.039 1.411v4.774h-1.544v-8.23h1.93l2.841 4.828 0.703 1.357h0.023l-0.046-1.418v-4.767h1.544zM17.099 11.46c0.022-0 0.048-0.001 0.074-0.001 0.671 0 1.309 0.142 1.885 0.399l-0.030-0.012c0.573 0.276 1.050 0.669 1.417 1.15l0.007 0.009-0.945 1.11c-0.293-0.393-0.66-0.714-1.083-0.946l-0.017-0.009c-0.388-0.193-0.845-0.306-1.329-0.306-0.020 0-0.040 0-0.060 0.001l0.003-0c-0.021-0.001-0.046-0.001-0.071-0.001-0.281 0-0.55 0.051-0.798 0.145l0.015-0.005c-0.196 0.068-0.368 0.194-0.494 0.359-0.1 0.147-0.154 0.321-0.154 0.499 0 0.001-0 0.003-0 0.005 0 0.225 0.1 0.426 0.258 0.562l0.001 0.001c0.261 0.198 0.566 0.331 0.888 0.387l1.513 0.352c0.67 0.112 1.259 0.402 1.733 0.819l-0.004-0.003c0.332 0.347 0.537 0.818 0.537 1.337 0 0.016-0 0.033-0.001 0.049l0-0.002c0.001 0.019 0.001 0.041 0.001 0.063 0 0.497-0.156 0.958-0.422 1.336l0.005-0.007c-0.294 0.393-0.686 0.697-1.14 0.879l-0.018 0.006c-0.491 0.193-1.059 0.306-1.653 0.306-0.024 0-0.048-0-0.072-0.001l0.004 0c-0.522 0.004-1.042-0.067-1.544-0.209-0.478-0.136-0.896-0.328-1.276-0.575l0.018 0.011c-0.358-0.232-0.663-0.509-0.917-0.827l-0.006-0.008 0.957-1.16c0.199 0.273 0.431 0.507 0.694 0.701l0.009 0.006c0.265 0.202 0.57 0.37 0.899 0.488l0.024 0.007c0.363 0.122 0.744 0.183 1.127 0.182 0.020 0.001 0.044 0.001 0.068 0.001 0.28 0 0.551-0.044 0.804-0.126l-0.018 0.005c0.212-0.062 0.391-0.179 0.528-0.335l0.001-0.001c0.126-0.148 0.195-0.336 0.193-0.53 0-0.007 0-0.015 0-0.024 0-0.207-0.081-0.394-0.213-0.533l0 0c-0.217-0.186-0.488-0.313-0.787-0.354l-0.008-0.001-1.648-0.387c-0.464-0.111-0.872-0.268-1.252-0.47l0.028 0.014c-0.32-0.173-0.58-0.418-0.767-0.714l-0.005-0.008c-0.168-0.288-0.267-0.635-0.267-1.004 0-0.018 0-0.036 0.001-0.054l-0 0.003c-0-0.012-0-0.026-0-0.040 0-0.478 0.144-0.922 0.392-1.291l-0.005 0.008c0.291-0.407 0.684-0.725 1.14-0.921l0.018-0.007c0.558-0.233 1.159-0.345 1.764-0.329zM28.702 11.584v1.384h-2.702v6.846h-1.695v-6.846h-2.752v-1.384h7.148zM36.549 19.814h-1.756l-0.679-2.006h-3.111l-0.676 2.006h-1.737l2.964-8.23h2.030l2.964 8.23zM31.384 16.536h2.351l-1.181-3.591-1.169 3.591zM39.911 18.43h4.273v1.384h-5.971v-8.231h1.698v6.846z"></path>
<path fill="#c12b2f" style="fill: var(--color2, #c12b2f)" d="M1.15 10.896c0.635 0 1.15-0.523 1.15-1.168s-0.515-1.167-1.15-1.167c-0.636 0-1.151 0.522-1.151 1.167s0.515 1.168 1.15 1.168z"></path>
<path fill="#1fae8a" style="fill: var(--color1, #1fae8a)" d="M50.464 11.584v8.23h-1.698v-8.23h1.698zM55.763 11.584l-3.713 4.279-0.135-0.139-2.030 2.319-0.259-1.596 4.169-4.878 1.968 0.015zM52.517 14.429l3.346 5.385h-1.93l-2.702-4.426 1.286-0.959zM61.167 11.584c0.056-0.004 0.122-0.005 0.188-0.005 0.749 0 1.439 0.257 1.985 0.687l-0.007-0.005c0.475 0.416 0.774 1.024 0.774 1.701 0 0.037-0.001 0.073-0.003 0.109l0-0.005c0.003 0.046 0.005 0.099 0.005 0.153 0 0.677-0.3 1.285-0.774 1.696l-0.003 0.002c-0.543 0.407-1.227 0.651-1.969 0.651-0.069 0-0.138-0.002-0.206-0.006l0.009 0-0.173 0.097h-1.756v3.154h-1.671v-8.23h3.601zM60.97 15.353c0.037 0.003 0.079 0.005 0.123 0.005 0.353 0 0.68-0.112 0.948-0.302l-0.005 0.003c0.218-0.237 0.352-0.555 0.352-0.905s-0.134-0.667-0.353-0.906l0.001 0.001c-0.262-0.187-0.59-0.299-0.943-0.299-0.043 0-0.086 0.002-0.128 0.005l0.006-0h-1.733v2.397h1.733zM61.97 15.712l2.633 4.102h-1.907l-2.196-3.614 1.471-0.487zM73.445 19.814h-1.76l-0.675-2.006h-3.115l-0.676 2.006h-1.737l2.968-8.23h2.026l2.969 8.23zM68.277 16.536h2.35l-1.181-3.591-1.169 3.591z"></path>
</symbol>
<symbol id="icon-mail" viewBox="0 0 39 32">
<path d="M0.303 31.95v-31.295h38.967v31.295h-38.966zM19.787 18.259l15.587-9.78v-3.912l-15.587 9.78-15.587-9.78v3.912l15.587 9.78z"></path>
</symbol>
<symbol id="icon-phone" viewBox="0 0 37 32">
<path d="M22.821 30.673c-9.293-3.415-16.78-9.709-20.994-17.649v-0.004l-1.139-2.165c-0.753-1.433-0.893-3.052-0.396-4.567s1.6-2.828 3.111-3.705l2.925-1.698c0.351-0.203 0.771-0.322 1.22-0.322 0.117 0 0.232 0.008 0.344 0.024l-0.013-0.001c0.543 0.071 1.034 0.316 1.379 0.685l5.333 5.721c0.185 0.2 0.322 0.429 0.403 0.675s0.103 0.504 0.065 0.758c-0.037 0.253-0.134 0.499-0.283 0.719s-0.349 0.413-0.587 0.565l-2.759 1.771c2.593 4.543 6.844 8.221 12.095 10.465l2.045-2.385c0.176-0.205 0.399-0.378 0.653-0.507s0.538-0.213 0.831-0.245c0.293-0.033 0.591-0.013 0.876 0.056s0.55 0.189 0.78 0.349l6.611 4.615c0.427 0.298 0.709 0.723 0.791 1.193 0.083 0.469-0.041 0.948-0.347 1.342l-1.949 2.515c-1.008 1.3-2.514 2.251-4.253 2.685-0.637 0.165-1.368 0.26-2.122 0.26-1.125 0-2.201-0.211-3.19-0.596l0.060 0.021-1.493-0.573z"></path>
</symbol>
<symbol id="icon-right" viewBox="0 0 31 32">
<path d="M19.203 9.353c0.231-0.231 0.55-0.374 0.902-0.374s0.671 0.143 0.902 0.374l5.745 5.744c0.231 0.231 0.374 0.55 0.374 0.903s-0.143 0.672-0.374 0.903l-5.745 5.744c-0.233 0.242-0.559 0.392-0.921 0.392-0.705 0-1.277-0.572-1.277-1.277 0-0.362 0.151-0.688 0.392-0.921l0-0 3.565-3.565h-17.342c-0.705 0-1.277-0.572-1.277-1.277s0.572-1.277 1.277-1.277v0h17.342l-3.565-3.565c-0.231-0.231-0.374-0.55-0.374-0.902s0.143-0.671 0.374-0.902v0z"></path>
</symbol>
<symbol id="icon-telegram" viewBox="0 0 32 32">
<path d="M15.517 0.495c-8.56 0-15.507 6.945-15.507 15.505 0 8.559 6.946 15.506 15.506 15.506 8.559 0 15.505-6.947 15.505-15.506s-6.946-15.505-15.505-15.505zM22.711 11.038c-0.233 2.45-1.24 8.404-1.752 11.149-0.217 1.163-0.651 1.55-1.055 1.597-0.899 0.077-1.581-0.59-2.45-1.163-1.364-0.9-2.14-1.458-3.457-2.326-1.535-1.008-0.543-1.566 0.341-2.465 0.233-0.233 4.202-3.846 4.28-4.171 0.005-0.020 0.007-0.043 0.007-0.066 0-0.083-0.032-0.158-0.085-0.214l0 0c-0.093-0.077-0.217-0.046-0.326-0.030-0.14 0.030-2.31 1.473-6.543 4.326-0.62 0.418-1.178 0.635-1.674 0.62-0.559-0.016-1.613-0.31-2.404-0.574-0.977-0.31-1.736-0.48-1.674-1.023 0.030-0.28 0.418-0.558 1.147-0.853 4.528-1.97 7.536-3.272 9.040-3.892 4.31-1.799 5.194-2.109 5.783-2.109 0.124 0 0.419 0.031 0.605 0.186 0.121 0.103 0.202 0.25 0.217 0.417l0 0.002c-0.015 0.093 0.016 0.372 0 0.59z"></path>
</symbol>
<symbol id="icon-protection" viewBox="0 0 32 32">
<path fill="none" stroke="#1eaf8a" style="stroke: var(--color1, #1eaf8a)" stroke-linejoin="round" stroke-linecap="round" stroke-miterlimit="4" stroke-width="1.3714" d="M16.111 24.229c3.768-1.297 6.453-4.312 6.874-8.151 0.117-1.666 0.107-3.339-0.029-5.005-0.038-0.543-0.481-0.97-1.027-0.984l-0.001-0c-1.704-0.053-3.686-0.336-5.216-1.842-0.154-0.152-0.366-0.246-0.6-0.246s-0.446 0.094-0.6 0.246l0-0c-1.531 1.506-3.512 1.79-5.216 1.842-0.274 0.007-0.521 0.118-0.705 0.294l0-0c-0.184 0.176-0.304 0.418-0.323 0.688l-0 0.003c-0.070 0.808-0.111 1.749-0.111 2.699 0 0.811 0.029 1.616 0.087 2.412l-0.006-0.107c0.422 3.839 3.107 6.854 6.874 8.151z"></path>
<path fill="none" stroke="#1eaf8a" style="stroke: var(--color1, #1eaf8a)" stroke-linejoin="round" stroke-linecap="round" stroke-miterlimit="4" stroke-width="1.3714" d="M12.565 15.293l2.706 2.799 4.249-4.637"></path>
<path fill="none" stroke="#1eaf8a" style="stroke: var(--color1, #1eaf8a)" stroke-linejoin="miter" stroke-linecap="butt" stroke-miterlimit="4" stroke-width="1.3714" d="M31.327 16c0 8.458-6.856 15.314-15.314 15.314s-15.314-6.856-15.314-15.314c0-8.458 6.856-15.314 15.314-15.314s15.314 6.856 15.314 15.314z"></path>
</symbol>
<symbol id="icon-reward" viewBox="0 0 32 32">
<path fill="none" stroke="#1eaf8a" style="stroke: var(--color1, #1eaf8a)" stroke-linejoin="round" stroke-linecap="round" stroke-miterlimit="4" stroke-width="1.3714" d="M22.069 14.187c0 3.417-2.77 6.187-6.187 6.187s-6.187-2.77-6.187-6.187v0c0-3.417 2.77-6.187 6.187-6.187s6.187 2.77 6.187 6.187v0z"></path>
<path fill="none" stroke="#1eaf8a" style="stroke: var(--color1, #1eaf8a)" stroke-linejoin="round" stroke-linecap="round" stroke-miterlimit="4" stroke-width="1.3714" d="M10.523 17.221l-2.751 4.766 2.972-0.797 0.798 2.972 2.387-4.135M21.249 17.221l2.751 4.766-2.974-0.797-0.796 2.972-2.387-4.135M16.135 10.827l0.853 1.715c0.038 0.087 0.119 0.149 0.216 0.158l0.001 0 1.894 0.287c0.142 0.019 0.251 0.139 0.251 0.285 0 0.083-0.035 0.158-0.092 0.211l-0 0-1.4 1.328c-0.020 0.037-0.032 0.082-0.032 0.129s0.012 0.091 0.033 0.13l-0.001-0.001 0.268 1.883c0.004 0.018 0.006 0.038 0.006 0.059 0 0.159-0.129 0.287-0.287 0.287-0.054 0-0.104-0.015-0.147-0.040l0.001 0.001-1.686-0.891c-0.041-0.019-0.088-0.030-0.139-0.030s-0.098 0.011-0.141 0.031l0.002-0.001-1.685 0.891c-0.041 0.024-0.091 0.038-0.143 0.038-0.159 0-0.287-0.129-0.287-0.287 0-0.021 0.002-0.041 0.006-0.060l-0 0.002 0.317-1.883c0.008-0.025 0.013-0.053 0.013-0.083 0-0.066-0.024-0.127-0.063-0.175l0 0-1.397-1.339c-0.052-0.052-0.084-0.124-0.084-0.203 0-0.143 0.105-0.262 0.243-0.284l0.002-0 1.893-0.275c0.098-0.009 0.179-0.071 0.216-0.157l0.001-0.002 0.853-1.715c0.047-0.099 0.146-0.166 0.26-0.166 0.111 0 0.207 0.063 0.255 0.154l0.001 0.002z"></path>
<path fill="none" stroke="#1eaf8a" style="stroke: var(--color1, #1eaf8a)" stroke-linejoin="miter" stroke-linecap="butt" stroke-miterlimit="4" stroke-width="1.3714" d="M31.314 16c0 8.458-6.856 15.314-15.314 15.314s-15.314-6.856-15.314-15.314c0-8.458 6.856-15.314 15.314-15.314s15.314 6.856 15.314 15.314z"></path>
</symbol>
<symbol id="line" viewBox="0 0 150 1">
  			<line y1="0.5" x2="150" y2="0.5"/>
  		</symbol>
  		<symbol id="circle" viewBox="0 0 182 182">
  			<circle cx="91" cy="91" r="87.5"/>
  		</symbol>	
<symbol id="icon-person" viewBox="0 0 32 32">
<path fill="none" stroke="#1eaf8a" style="stroke: var(--color1, #1eaf8a)" stroke-linejoin="miter" stroke-linecap="butt" stroke-miterlimit="4" stroke-width="1.3714" d="M16.122 15.148c2.037 0 3.688-1.651 3.688-3.688s-1.651-3.688-3.688-3.688v0c-2.037 0-3.688 1.651-3.688 3.688s1.651 3.688 3.688 3.688v0zM16.122 15.148c1.485 0 2.782 0.561 3.705 1.492 0.532 0.539 0.942 1.2 1.185 1.936l0.010 0.035M16.122 15.148c-2.95 0-5.163 2.213-5.163 5.163v3.688h7.377M19.073 20.92l3.091 2.343 5.024-6.639"></path>
<path fill="none" stroke="#1eaf8a" style="stroke: var(--color1, #1eaf8a)" stroke-linejoin="miter" stroke-linecap="butt" stroke-miterlimit="4" stroke-width="1.3714" d="M31.53 16c0 8.458-6.856 15.314-15.314 15.314s-15.314-6.856-15.314-15.314c0-8.458 6.856-15.314 15.314-15.314s15.314 6.856 15.314 15.314z"></path>
</symbol>	
<symbol id="icon-sign-dot" viewBox="0 0 36 32">
<path fill="#1fae8a" style="fill: var(--color1, #1fae8a)" d="M20.263 28.809c-0.001 0-0.002 0-0.004 0-7.081 0-12.822-5.74-12.822-12.822s5.74-12.822 12.822-12.822c7.081 0 12.822 5.74 12.822 12.822 0 0.004 0 0.008 0 0.012v-0.001c-0.013 7.073-5.745 12.802-12.817 12.81h-0.001zM20.263 4.291c-0.001 0-0.002 0-0.004 0-6.461 0-11.699 5.238-11.699 11.699s5.238 11.699 11.699 11.699c6.459 0 11.695-5.234 11.699-11.691v-0c-0.009-6.456-5.24-11.687-11.695-11.696h-0.001z"></path>
<path fill="#c12b2f" style="fill: var(--color2, #c12b2f)" d="M5.073 16.739c0 0.523-0.424 0.947-0.947 0.947s-0.947-0.424-0.947-0.947c0-0.523 0.424-0.947 0.947-0.947s0.947 0.424 0.947 0.947z"></path>
<path fill="#17ad88" style="fill: var(--color3, #17ad88)" d="M11.688 12.552v6.667h-1.392v-6.667zM16.043 12.552l-3.053 3.465-0.108-0.108-1.669 1.871-0.21-1.295 3.423-3.951zM13.375 14.857l2.746 4.362h-1.594l-2.222-3.584z"></path>
<path fill="#17ad88" style="fill: var(--color3, #17ad88)" d="M20.465 12.552c0.047-0.003 0.101-0.005 0.156-0.005 0.613 0 1.179 0.206 1.631 0.552l-0.006-0.005c0.396 0.336 0.645 0.833 0.645 1.389 0 0.027-0.001 0.054-0.002 0.081l0-0.004c0.002 0.033 0.003 0.072 0.003 0.111 0 0.555-0.25 1.052-0.644 1.383l-0.003 0.002c-0.448 0.33-1.010 0.528-1.619 0.528-0.053 0-0.106-0.002-0.158-0.004l0.007 0-0.142 0.079h-1.433v2.555h-1.373v-6.663zM20.304 15.605c0.031 0.003 0.068 0.004 0.104 0.004 0.289 0 0.556-0.091 0.775-0.246l-0.004 0.003c0.178-0.191 0.288-0.449 0.288-0.731s-0.109-0.54-0.288-0.732l0.001 0.001c-0.215-0.152-0.482-0.243-0.771-0.243-0.037 0-0.073 0.001-0.109 0.004l0.005-0h-1.403v1.942zM21.124 15.897l2.163 3.322h-1.568l-1.788-2.918z"></path>
<path fill="#17ad88" style="fill: var(--color3, #17ad88)" d="M30.56 19.219h-1.444l-0.557-1.635h-2.555l-0.561 1.635h-1.422l2.432-6.667h1.669zM26.317 16.563h1.927l-0.969-2.907z"></path>
</symbol>
<symbol id="icon-lines" viewBox="0 0 52 32">
<path stroke-linejoin="miter" stroke-linecap="round" stroke-miterlimit="4" stroke-width="3.5556" d="M1.778 1.778h48"></path>
<path stroke-linejoin="miter" stroke-linecap="round" stroke-miterlimit="4" stroke-width="3.5556" d="M1.778 16h48"></path>
<path stroke-linejoin="miter" stroke-linecap="round" stroke-miterlimit="4" stroke-width="3.5556" d="M1.778 30.222h48"></path>
</symbol>
<symbol id="icon-facebook" viewBox="0 0 32 32">
<path d="M32 16.040c0-8.854-7.168-16.040-16-16.040s-16 7.186-16 16.040c0 7.764 5.504 14.228 12.8 15.719v-10.907h-3.2v-4.812h3.2v-4.010c0-3.096 2.512-5.614 5.6-5.614h4v4.812h-3.2c-0.88 0-1.6 0.722-1.6 1.604v3.208h4.8v4.812h-4.8v11.148c8.080-0.802 14.4-7.635 14.4-15.96z"></path>
</symbol>
<symbol id="icon-instagram" viewBox="0 0 33 32">
<path d="M16.32 32c-8.837 0-16-7.163-16-16s7.163-16 16-16c8.837 0 16 7.163 16 16s-7.163 16-16 16zM26.56 11.699c0-3.277-2.662-5.939-5.939-5.939h-8.602c-1.575 0-3.086 0.626-4.2 1.74s-1.74 2.624-1.74 4.2v8.602c0 3.277 2.662 5.939 5.939 5.939h8.602c1.575 0 3.086-0.626 4.2-1.74s1.74-2.625 1.74-4.2v-8.602zM9.208 8.888c0.691-0.691 1.629-1.080 2.607-1.080h9.011c2.038 0 3.686 1.649 3.686 3.686v9.011c0 0.978-0.388 1.915-1.080 2.607s-1.629 1.080-2.607 1.080h-9.011c-2.038 0-3.686-1.649-3.686-3.686v-9.011c0-0.978 0.388-1.915 1.080-2.607zM22.601 9.719c-0.24-0.24-0.566-0.375-0.905-0.375s-0.665 0.135-0.905 0.375c-0.24 0.24-0.375 0.566-0.375 0.905s0.135 0.665 0.375 0.905c0.24 0.24 0.566 0.375 0.905 0.375s0.665-0.135 0.905-0.375c0.24-0.24 0.375-0.566 0.375-0.905s-0.135-0.665-0.375-0.905zM19.94 12.38c-0.96-0.96-2.263-1.5-3.62-1.5s-2.66 0.539-3.62 1.5c-0.96 0.96-1.5 2.263-1.5 3.62s0.539 2.66 1.5 3.62c0.96 0.96 2.263 1.5 3.62 1.5s2.66-0.539 3.62-1.5c0.96-0.96 1.5-2.263 1.5-3.62s-0.539-2.66-1.5-3.62zM14.148 13.828c-0.576 0.576-0.9 1.357-0.9 2.172s0.324 1.596 0.9 2.172c0.576 0.576 1.357 0.9 2.172 0.9s1.596-0.324 2.172-0.9c0.576-0.576 0.9-1.358 0.9-2.172s-0.324-1.596-0.9-2.172c-0.576-0.576-1.358-0.9-2.172-0.9s-1.596 0.324-2.172 0.9z"></path>
</symbol>
<symbol id="icon-telegram" viewBox="0 0 32 32">
<path d="M16 0c-8.832 0-16 7.168-16 16s7.168 16 16 16c8.832 0 16-7.168 16-16s-7.168-16-16-16zM23.424 10.88c-0.24 2.528-1.28 8.672-1.808 11.504-0.224 1.2-0.672 1.6-1.088 1.648-0.928 0.080-1.632-0.608-2.528-1.2-1.408-0.928-2.208-1.504-3.568-2.4-1.584-1.040-0.56-1.616 0.352-2.544 0.24-0.24 4.336-3.968 4.416-4.304 0.011-0.051 0.010-0.104-0.004-0.154s-0.040-0.096-0.076-0.134c-0.096-0.080-0.224-0.048-0.336-0.032-0.144 0.032-2.384 1.52-6.752 4.464-0.64 0.432-1.216 0.656-1.728 0.64-0.576-0.016-1.664-0.32-2.48-0.592-1.008-0.32-1.792-0.496-1.728-1.056 0.032-0.288 0.432-0.576 1.184-0.88 4.672-2.032 7.776-3.376 9.328-4.016 4.448-1.856 5.36-2.176 5.968-2.176 0.128 0 0.432 0.032 0.624 0.192 0.16 0.128 0.208 0.304 0.224 0.432-0.016 0.096 0.016 0.384 0 0.608z"></path>
</symbol>
<symbol id="icon-whats-up" viewBox="0 0 32 32">
<path d="M16 0c8.837 0 16 7.163 16 16s-7.163 16-16 16c-2.828 0.005-5.605-0.743-8.048-2.168l-7.946 2.168 2.163-7.949c-1.426-2.443-2.175-5.222-2.17-8.051 0-8.837 7.163-16 16-16zM10.547 8.48l-0.32 0.013c-0.207 0.014-0.409 0.069-0.595 0.16-0.173 0.098-0.332 0.221-0.47 0.365-0.192 0.181-0.301 0.338-0.418 0.49-0.592 0.769-0.91 1.714-0.906 2.685 0.003 0.784 0.208 1.547 0.528 2.261 0.654 1.443 1.731 2.971 3.152 4.387 0.342 0.341 0.678 0.683 1.040 1.002 1.765 1.554 3.869 2.675 6.144 3.274l0.909 0.139c0.296 0.016 0.592-0.006 0.89-0.021 0.466-0.025 0.921-0.151 1.333-0.37 0.209-0.108 0.414-0.226 0.613-0.352 0 0 0.068-0.046 0.2-0.144 0.216-0.16 0.349-0.274 0.528-0.461 0.134-0.139 0.246-0.3 0.336-0.483 0.125-0.261 0.25-0.758 0.301-1.173 0.038-0.317 0.027-0.49 0.022-0.597-0.006-0.171-0.149-0.349-0.304-0.424l-0.931-0.418c0 0-1.392-0.606-2.243-0.994-0.089-0.039-0.185-0.061-0.282-0.066-0.109-0.011-0.22 0.001-0.324 0.036s-0.2 0.092-0.28 0.167c-0.008-0.003-0.115 0.088-1.272 1.49-0.066 0.089-0.158 0.157-0.263 0.194s-0.218 0.042-0.326 0.014c-0.104-0.028-0.206-0.063-0.306-0.106-0.198-0.083-0.267-0.115-0.403-0.173-0.919-0.4-1.769-0.942-2.52-1.605-0.202-0.176-0.389-0.368-0.581-0.554-0.629-0.603-1.178-1.285-1.632-2.029l-0.094-0.152c-0.067-0.103-0.122-0.213-0.163-0.328-0.061-0.235 0.098-0.424 0.098-0.424s0.389-0.426 0.57-0.656c0.176-0.224 0.325-0.442 0.421-0.597 0.189-0.304 0.248-0.616 0.149-0.858-0.448-1.094-0.911-2.183-1.389-3.266-0.094-0.214-0.374-0.368-0.629-0.398-0.086-0.011-0.173-0.019-0.259-0.026-0.215-0.012-0.43-0.010-0.645 0.006l0.323-0.011z"></path>
</symbol>
</defs>
</svg>
